<svg xmlns="http://www.w3.org/2000/svg" viewBox="0 0 189.43 61.96"><defs><style>.cls-1{fill:#231f20;}.cls-2{fill:#fff;}</style></defs><title>AppStore</title><g id="Layer_2" data-name="Layer 2"><g id="Layer_1-2" data-name="Layer 1"><rect class="cls-1" width="189.43" height="61.96" rx="8.37" ry="8.37"/><path class="cls-2" d="M32.72,10.6H17.29A3.35,3.35,0,0,0,13.94,14V48.13a3.35,3.35,0,0,0,3.35,3.35H32.72a3.35,3.35,0,0,0,3.35-3.35V14A3.35,3.35,0,0,0,32.72,10.6ZM25,49a2.23,2.23,0,1,1,2.23-2.23A2.23,2.23,0,0,1,25,49Zm8.44-5.55H16.57V18.26H33.44Z"/><path class="cls-2" d="M48.7,16.69l-.93,2.84H46.56l3.07-9H51l3.09,9H52.87l-1-2.84Zm3-.91-.89-2.6c-.19-.59-.33-1.13-.46-1.65h0c-.12.52-.27,1.09-.44,1.64l-.89,2.61Z"/><path class="cls-2" d="M55.32,13l1.27,3.64c.22.6.39,1.14.53,1.67h0c.15-.53.33-1.07.55-1.67L59,13H60.2l-2.55,6.49H56.53L54.06,13Z"/><path class="cls-2" d="M65.63,18a10.44,10.44,0,0,0,.09,1.55H64.66l-.11-.82h0a2.37,2.37,0,0,1-2,1,1.85,1.85,0,0,1-2-1.86c0-1.57,1.39-2.43,3.9-2.42v-.13A1.33,1.33,0,0,0,63,13.77a3.13,3.13,0,0,0-1.7.48L61,13.46a4.28,4.28,0,0,1,2.15-.56c2,0,2.48,1.35,2.48,2.65Zm-1.16-1.76c-1.28,0-2.74.2-2.74,1.46a1,1,0,0,0,1.1,1.13,1.64,1.64,0,0,0,1.59-1.09,1.18,1.18,0,0,0,0-.37Z"/><path class="cls-2" d="M68,11.85a.76.76,0,0,1,0-1.51.72.72,0,0,1,.75.75.74.74,0,0,1-.76.76Zm-.56,7.68V13h1.18v6.49Z"/><path class="cls-2" d="M70.52,10H71.7v9.51H70.52Z"/><path class="cls-2" d="M78.15,18a10.35,10.35,0,0,0,.1,1.55H77.19l-.11-.82h0a2.4,2.4,0,0,1-2,1,1.86,1.86,0,0,1-2-1.86c0-1.57,1.4-2.43,3.9-2.42v-.13a1.32,1.32,0,0,0-1.47-1.5,3.08,3.08,0,0,0-1.7.48l-.27-.79a4.27,4.27,0,0,1,2.14-.56c2,0,2.48,1.35,2.48,2.65ZM77,16.22c-1.29,0-2.75.2-2.75,1.46a1,1,0,0,0,1.1,1.13A1.65,1.65,0,0,0,77,17.72a1.18,1.18,0,0,0,0-.37Z"/><path class="cls-2" d="M80,10h1.18v4.06h0a2.4,2.4,0,0,1,2.21-1.18c1.61,0,2.73,1.34,2.73,3.29,0,2.34-1.47,3.49-2.92,3.49A2.33,2.33,0,0,1,81,18.46h0l-.07,1.07h-1c0-.44,0-1.1,0-1.67Zm1.18,6.91a2,2,0,0,0,0,.43A1.81,1.81,0,0,0,83,18.74c1.25,0,2-1,2-2.49,0-1.32-.67-2.43-1.93-2.43a2,2,0,0,0-1.85,1.95Z"/><path class="cls-2" d="M87.53,10h1.18v9.51H87.53Z"/><path class="cls-2" d="M91.27,16.49a2.07,2.07,0,0,0,2.21,2.25,4.6,4.6,0,0,0,1.8-.32l.21.83a5.28,5.28,0,0,1-2.17.41,3,3,0,0,1-3.19-3.26c0-2,1.16-3.52,3.06-3.52,2.11,0,2.66,1.87,2.66,3.06a2.73,2.73,0,0,1,0,.56Zm3.44-.85a1.68,1.68,0,0,0-1.62-1.91,2,2,0,0,0-1.81,1.91Z"/><path class="cls-2" d="M102.66,19.68a3.1,3.1,0,0,1-3.11-3.34,3.17,3.17,0,0,1,3.21-3.44,3.07,3.07,0,0,1,3.13,3.32,3.19,3.19,0,0,1-3.22,3.46Zm0-.89c1.12,0,2-1.05,2-2.53,0-1.1-.55-2.48-2-2.48s-2,1.29-2,2.52c0,1.42.8,2.49,1.94,2.49Z"/><path class="cls-2" d="M107.31,14.8c0-.68,0-1.22-.06-1.76h1l.06,1.06h0a2.4,2.4,0,0,1,2.14-1.2c.9,0,2.3.53,2.3,2.76v3.87h-1.18V15.79c0-1-.39-1.93-1.5-1.93a1.71,1.71,0,0,0-1.59,1.21,1.87,1.87,0,0,0-.08.55v3.91h-1.17Z"/><path class="cls-2" d="M118.87,11.49V13h1.68v.9h-1.68v3.5c0,.8.23,1.26.88,1.26a2.41,2.41,0,0,0,.69-.08l0,.9a3.25,3.25,0,0,1-1,.16,1.67,1.67,0,0,1-1.27-.5,2.54,2.54,0,0,1-.46-1.7V13.94h-1V13h1V11.85Z"/><path class="cls-2" d="M121.81,10H123v4h0a2.16,2.16,0,0,1,.84-.83,2.36,2.36,0,0,1,1.21-.33c.87,0,2.26.53,2.26,2.77v3.86h-1.17V15.81c0-1.06-.39-1.93-1.51-1.93a1.71,1.71,0,0,0-1.58,1.17,1.64,1.64,0,0,0-.08.57v3.91h-1.18Z"/><path class="cls-2" d="M129.85,16.49a2.07,2.07,0,0,0,2.21,2.25,4.56,4.56,0,0,0,1.8-.32l.21.83a5.24,5.24,0,0,1-2.17.41,3,3,0,0,1-3.19-3.26c0-2,1.17-3.52,3.06-3.52,2.12,0,2.67,1.87,2.67,3.06a3.71,3.71,0,0,1,0,.56Zm3.45-.85a1.68,1.68,0,0,0-1.62-1.91,1.94,1.94,0,0,0-1.81,1.91Z"/><path class="cls-2" d="M139.17,11.85a.76.76,0,0,1,0-1.51.72.72,0,0,1,.75.75.74.74,0,0,1-.76.76Zm-.57,7.68V13h1.18v6.49Z"/><path class="cls-2" d="M141.71,10.62a11.73,11.73,0,0,1,2.24-.19,3.73,3.73,0,0,1,2.53.75,2.43,2.43,0,0,1,.8,1.89,2.61,2.61,0,0,1-.71,1.93,3.72,3.72,0,0,1-2.76,1,3.79,3.79,0,0,1-.93-.08v3.62h-1.17ZM142.88,15a3.82,3.82,0,0,0,1,.09c1.42,0,2.26-.69,2.26-1.91s-.84-1.78-2.13-1.78a5.94,5.94,0,0,0-1.09.09Z"/><path class="cls-2" d="M148.66,10h1.18v4h0a2.16,2.16,0,0,1,.84-.83,2.36,2.36,0,0,1,1.21-.33c.87,0,2.26.53,2.26,2.77v3.86H153V15.81c0-1.06-.39-1.93-1.51-1.93a1.71,1.71,0,0,0-1.58,1.17,1.64,1.64,0,0,0-.08.57v3.91h-1.18Z"/><path class="cls-2" d="M158.67,19.68a3.1,3.1,0,0,1-3.11-3.34,3.18,3.18,0,0,1,3.22-3.44,3.06,3.06,0,0,1,3.12,3.32,3.18,3.18,0,0,1-3.21,3.46Zm0-.89c1.13,0,2-1.05,2-2.53,0-1.1-.55-2.48-1.94-2.48s-2,1.29-2,2.52c0,1.42.8,2.49,1.94,2.49Z"/><path class="cls-2" d="M163.32,14.8c0-.68,0-1.22,0-1.76h1l.07,1.06h0a2.4,2.4,0,0,1,2.14-1.2c.9,0,2.29.53,2.29,2.76v3.87h-1.18V15.79c0-1-.39-1.93-1.5-1.93a1.71,1.71,0,0,0-1.58,1.21,1.87,1.87,0,0,0-.08.55v3.91h-1.18Z"/><path class="cls-2" d="M171.36,16.49a2.07,2.07,0,0,0,2.21,2.25,4.56,4.56,0,0,0,1.8-.32l.21.83a5.28,5.28,0,0,1-2.17.41,3,3,0,0,1-3.19-3.26c0-2,1.17-3.52,3.06-3.52,2.11,0,2.66,1.87,2.66,3.06a2.73,2.73,0,0,1,0,.56Zm3.44-.85a1.67,1.67,0,0,0-1.62-1.91,2,2,0,0,0-1.81,1.91Z"/><path class="cls-2" d="M54.25,25.65,46.31,49H50l2.37-7.18H60L62.45,49h3.74l-8-23.38Zm1.89,3.84c.27,1.05.56,2.13.93,3.3L59.21,39H53.12l2.11-6.24C55.55,31.74,55.85,30.65,56.14,29.49Z"/><path class="cls-2" d="M76.47,31.71a6.6,6.6,0,0,0-5.62,2.7l-.15-2.33H67.47l0,.3c.09,1.45.13,3,.13,5.33v18h3.54V47.33A6.22,6.22,0,0,0,76,49.4a7.33,7.33,0,0,0,5.36-2.27,9.69,9.69,0,0,0,2.37-6.81,9.35,9.35,0,0,0-2.06-6.21A6.72,6.72,0,0,0,76.47,31.71Zm-.88,2.93c3.15,0,4.56,2.92,4.56,5.82,0,3.73-1.8,6-4.7,6a4.29,4.29,0,0,1-4.16-3.28,4.19,4.19,0,0,1-.13-1.15V39.24a6,6,0,0,1,.11-.88,2.74,2.74,0,0,0,0-.28A4.48,4.48,0,0,1,75.59,34.64Z"/><path class="cls-2" d="M94.69,31.71a6.63,6.63,0,0,0-5.63,2.7l-.14-2.33H85.69l0,.3c.09,1.45.13,3,.13,5.33v18h3.54V47.33a6.22,6.22,0,0,0,4.84,2.07,7.33,7.33,0,0,0,5.36-2.27A9.69,9.69,0,0,0,102,40.32a9.41,9.41,0,0,0-2.06-6.21A6.72,6.72,0,0,0,94.69,31.71Zm-.88,2.93c3.15,0,4.56,2.92,4.56,5.82,0,3.73-1.8,6-4.7,6a4.29,4.29,0,0,1-4.16-3.28,4.19,4.19,0,0,1-.13-1.15V39.24a5.87,5.87,0,0,1,.11-.88c0-.1,0-.19.05-.28A4.48,4.48,0,0,1,93.81,34.64Z"/><path class="cls-2" d="M117.51,35.56c-3.3-1.28-4.36-2.29-4.36-4.15,0-1.56,1.25-3.14,4-3.14a8.08,8.08,0,0,1,4.15,1l.3.19,1-2.95-.2-.12a10.19,10.19,0,0,0-5.15-1.16c-4.51,0-7.67,2.67-7.67,6.48,0,3.08,2,5.23,6.22,6.77,3,1.12,4.12,2.27,4.12,4.24,0,2.23-1.73,3.61-4.5,3.61a9.65,9.65,0,0,1-5.1-1.44l-.31-.2-1,3,.18.12a12.12,12.12,0,0,0,6,1.53c6.08,0,8.23-3.7,8.23-6.88S121.75,37.23,117.51,35.56Z"/><path class="cls-2" d="M129.85,28.05l-3.47,1.09v2.94h-2.54v2.83h2.54v8.66c0,2.1.4,3.56,1.23,4.49A4.51,4.51,0,0,0,131,49.4a8.21,8.21,0,0,0,2.73-.42l.2-.07-.17-2.83-.34.1a5.18,5.18,0,0,1-1.64.19c-1.37,0-2-.86-2-2.9V34.91h4.27V32.08h-4.27Z"/><path class="cls-2" d="M142.89,31.71c-4.95,0-8.41,3.69-8.41,9,0,5.13,3.35,8.71,8.14,8.71h0c4,0,8.41-2.82,8.41-9a8.93,8.93,0,0,0-2.26-6.26A7.87,7.87,0,0,0,142.89,31.71Zm-.1,2.79c3.18,0,4.63,3.11,4.63,6,0,3.55-2,6.12-4.7,6.12h0c-2.68,0-4.63-2.53-4.63-6C138.05,37.56,139.52,34.5,142.79,34.5Z"/><path class="cls-2" d="M161.89,31.87l-.21-.05a3.27,3.27,0,0,0-.88-.11,5,5,0,0,0-4.43,2.85l-.11-2.48h-3.17l0,.3c.09,1.4.13,3,.13,5.09l0,11.56h3.54V40a9.79,9.79,0,0,1,.09-1.38c.4-2.16,1.86-3.56,3.73-3.56a9.12,9.12,0,0,1,1,.06l.37,0Z"/><path class="cls-2" d="M169.85,31.68c-4.71,0-8,3.76-8,9.15,0,5.19,3.27,8.54,8.34,8.54a13.57,13.57,0,0,0,5.6-1.07l.21-.1-.68-2.64-.29.12a11,11,0,0,1-4.44.8c-1.53,0-5.08-.51-5.29-5.13l11.42,0,0-.23a7.92,7.92,0,0,0,.11-1.47C176.87,36,175,31.68,169.85,31.68Zm-.24,2.69a3.47,3.47,0,0,1,2.6,1,5,5,0,0,1,1.22,3.29h-8.07C165.69,36.61,167,34.37,169.61,34.37Z"/></g></g></svg>