<svg xmlns="http://www.w3.org/2000/svg" width="55" height="51" viewBox="0 0 55 51">
    <defs>
        <linearGradient id="a" x1="-2430.273%" x2="3186.719%" y1="186.889%" y2="-242.963%">
            <stop offset="0%" stop-color="#5C9AC0"/>
            <stop offset="100%" stop-color="#8DDC97"/>
        </linearGradient>
    </defs>
    <g fill="none" fill-rule="evenodd">
        <path d="M-8-10h70v70H-8z"/>
        <g fill="url(#a)">
            <path d="M24.492 41.25a.43.43 0 0 1-.43-.43V30.507a.43.43 0 0 1 .86 0V40.82a.43.43 0 0 1-.43.43M30.508 41.25a.43.43 0 0 1-.43-.43V30.507a.43.43 0 0 1 .86 0V40.82a.43.43 0 0 1-.43.43M32.656 45.546a.43.43 0 0 1-.43-.43v-.43a1.72 1.72 0 0 0-1.718-1.718h-6.016a1.72 1.72 0 0 0-1.719 1.719v.43a.43.43 0 0 1-.859 0v-.43a2.581 2.581 0 0 1 2.578-2.578h6.016a2.581 2.581 0 0 1 2.578 2.578v.43a.43.43 0 0 1-.43.43M7.305 41.25a.43.43 0 0 1-.43-.43V30.507a.43.43 0 0 1 .86 0V40.82a.43.43 0 0 1-.43.43M13.32 41.25a.43.43 0 0 1-.43-.43V30.507a.43.43 0 0 1 .86 0V40.82a.43.43 0 0 1-.43.43M13.32 29.218H7.305a2.581 2.581 0 0 1-2.578-2.578v-.43a.43.43 0 0 1 .859 0v.43c0 .949.77 1.719 1.719 1.719h6.015a1.72 1.72 0 0 0 1.72-1.719v-.43a.43.43 0 0 1 .858 0v.43a2.581 2.581 0 0 1-2.578 2.578M15.469 45.546a.43.43 0 0 1-.43-.43v-.43a1.72 1.72 0 0 0-1.719-1.718H7.305a1.72 1.72 0 0 0-1.72 1.719v.43a.43.43 0 0 1-.858 0v-.43a2.581 2.581 0 0 1 2.578-2.578h6.015a2.581 2.581 0 0 1 2.578 2.578v.43a.43.43 0 0 1-.43.43M41.68 41.25a.43.43 0 0 1-.43-.43V30.507a.43.43 0 0 1 .86 0V40.82a.43.43 0 0 1-.43.43M47.695 41.25a.43.43 0 0 1-.43-.43V30.507a.43.43 0 0 1 .86 0V40.82a.43.43 0 0 1-.43.43M47.695 29.218H41.68a2.581 2.581 0 0 1-2.578-2.578v-.43a.43.43 0 0 1 .859 0v.43c0 .949.77 1.719 1.719 1.719h6.015a1.72 1.72 0 0 0 1.72-1.719v-.43a.43.43 0 0 1 .858 0v.43a2.581 2.581 0 0 1-2.578 2.578M49.844 45.546a.43.43 0 0 1-.43-.43v-.43a1.72 1.72 0 0 0-1.719-1.718H41.68a1.72 1.72 0 0 0-1.72 1.719v.43a.43.43 0 0 1-.858 0v-.43a2.581 2.581 0 0 1 2.578-2.578h6.015a2.581 2.581 0 0 1 2.578 2.578v.43a.43.43 0 0 1-.43.43M2.578 47.265a.43.43 0 0 0-.43.43v1.718c0 .237.193.43.43.43h49.844c.236 0 .43-.193.43-.43v-1.718a.431.431 0 0 0-.43-.43H2.578zm49.844 3.438H2.578a1.29 1.29 0 0 1-1.289-1.29v-1.718c0-.711.578-1.29 1.29-1.29h49.843c.71 0 1.289.579 1.289 1.29v1.718c0 .711-.578 1.29-1.29 1.29zM27.5 15.468a6.453 6.453 0 0 0-6.445 6.445A6.452 6.452 0 0 0 27.5 28.36a6.452 6.452 0 0 0 6.445-6.446 6.453 6.453 0 0 0-6.445-6.445m0 13.75c-4.028 0-7.305-3.276-7.305-7.305 0-4.027 3.277-7.304 7.305-7.304s7.305 3.277 7.305 7.304c0 4.03-3.277 7.305-7.305 7.305"/>
            <path d="M49.844 18.046a.424.424 0 0 1-.262-.09L27.5.972 5.418 17.957a.429.429 0 1 1-.524-.68L27.238.088a.433.433 0 0 1 .524 0l22.344 17.187a.43.43 0 0 1-.262.77M19.3 24.921H2.579a1.29 1.29 0 0 1-1.289-1.289v-3.437c0-.71.578-1.29 1.29-1.29H19.3a.43.43 0 0 1 0 .86H2.578a.43.43 0 0 0-.43.43v3.437c0 .237.193.43.43.43h16.723a.43.43 0 0 1 0 .86M52.422 24.921H35.699a.43.43 0 1 1 0-.86h16.723a.43.43 0 0 0 .43-.429v-3.437a.431.431 0 0 0-.43-.43H35.699a.43.43 0 1 1 0-.86h16.723c.71 0 1.289.58 1.289 1.29v3.437a1.29 1.29 0 0 1-1.29 1.29M16.758 4.726h-.86a.43.43 0 1 1 0-.86h.86a.43.43 0 0 1 0 .86M14.18 4.726H4.727a.43.43 0 1 1 0-.86h9.453a.43.43 0 0 1 0 .86M9.883 7.304H.43a.43.43 0 1 1 0-.86h9.453a.43.43 0 0 1 0 .86M39.102 4.726h-.86a.43.43 0 1 1 0-.86h.86a.43.43 0 0 1 0 .86M50.273 4.726H40.82a.43.43 0 1 1 0-.86h9.453a.43.43 0 0 1 0 .86M54.57 7.304h-9.453a.43.43 0 1 1 0-.86h9.453a.43.43 0 0 1 0 .86M31.367 19.243h-7.734a.43.43 0 0 1 0-.86h7.734a.43.43 0 0 1 0 .86"/>
            <path d="M27.07 26.548v-7.735a.43.43 0 0 1 .86 0v7.735a.43.43 0 0 1-.86 0"/>
        </g>
    </g>
</svg>
