<svg xmlns="http://www.w3.org/2000/svg" width="45" height="55" viewBox="0 0 45 55">
    <defs>
        <linearGradient id="a" x1="-60.531%" x2="166.203%" y1="152.75%" y2="-51.813%">
            <stop offset="0%" stop-color="#5C9AC0"/>
            <stop offset="100%" stop-color="#8DDC97"/>
        </linearGradient>
    </defs>
    <g fill="none" fill-rule="evenodd">
        <g fill="url(#a)">
            <path d="M22.5 16C16.159 16 11 21.159 11 27.5S16.159 39 22.5 39 34 33.841 34 27.5 28.841 16 22.5 16m0 24C15.607 40 10 34.393 10 27.5S15.607 15 22.5 15 35 20.607 35 27.5 29.393 40 22.5 40"/>
            <path d="M22.5 19c-4.687 0-8.5 3.813-8.5 8.5 0 4.687 3.813 8.5 8.5 8.5 4.687 0 8.5-3.813 8.5-8.5 0-4.687-3.813-8.5-8.5-8.5m0 18c-5.238 0-9.5-4.262-9.5-9.5s4.262-9.5 9.5-9.5 9.5 4.262 9.5 9.5-4.262 9.5-9.5 9.5"/>
            <path d="M23.212 31.5h-3.25a.5.5 0 0 1 0-1h3.25c.689 0 1.25-.561 1.25-1.25S23.9 28 23.212 28h-1.5a2.253 2.253 0 0 1-2.25-2.25c0-1.241 1.01-2.25 2.25-2.25h2.75a.5.5 0 1 1 0 1h-2.75c-.69 0-1.25.561-1.25 1.25s.56 1.25 1.25 1.25h1.5a2.252 2.252 0 0 1 2.25 2.25 2.252 2.252 0 0 1-2.25 2.25"/>
            <path d="M22.462 24.5a.5.5 0 0 1-.5-.5v-1.5a.5.5 0 0 1 1 0V24a.5.5 0 0 1-.5.5M22.462 33a.5.5 0 0 1-.5-.5V31a.5.5 0 0 1 1 0v1.5a.5.5 0 0 1-.5.5M18 4.5c-9.374 0-17 7.626-17 17V29a.5.5 0 0 0 .5.5h3A.5.5 0 0 0 5 29v-7.5c0-7.168 5.831-13 13-13h15a.5.5 0 0 1 .5.5v2.293L38.293 6.5 33.5 1.707V4a.5.5 0 0 1-.5.5H18zm-13.5 26h-3C.673 30.5 0 29.827 0 29v-7.5c0-9.925 8.075-18 18-18h14.5v-3a.5.5 0 0 1 .854-.354l6 6a.502.502 0 0 1 0 .708l-6 6a.5.5 0 0 1-.854-.354v-3H18c-6.616 0-12 5.383-12 12V29c0 .827-.673 1.5-1.5 1.5zM6.707 48.5l4.793 4.793V51a.5.5 0 0 1 .5-.5h15c9.374 0 17-7.626 17-17V26a.5.5 0 0 0-.5-.5h-3a.5.5 0 0 0-.5.5v7.5c0 7.168-5.831 13-13 13H12a.5.5 0 0 1-.5-.5v-2.293L6.707 48.5zM12 55a.504.504 0 0 1-.354-.146l-6-6a.502.502 0 0 1 0-.708l6-6a.5.5 0 0 1 .854.354v3H27c6.616 0 12-5.383 12-12V26c0-.827.673-1.5 1.5-1.5h3c.827 0 1.5.673 1.5 1.5v7.5c0 9.925-8.075 18-18 18H12.5v3a.5.5 0 0 1-.5.5zM14.5 1h-1a.5.5 0 0 1 0-1h1a.5.5 0 0 1 0 1M11.5 1H.5a.5.5 0 0 1 0-1h11a.5.5 0 0 1 0 1M31.5 55h-1a.5.5 0 0 1 0-1h1a.5.5 0 0 1 0 1M44.5 55h-11a.5.5 0 0 1 0-1h11a.5.5 0 0 1 0 1"/>
        </g>
        <path d="M-13-8h70v70h-70z"/>
    </g>
</svg>
