<svg xmlns="http://www.w3.org/2000/svg" xmlns:xlink="http://www.w3.org/1999/xlink" viewBox="0 0 189.43 61.96"><defs><style>.cls-1{fill:#231f20;}.cls-10,.cls-2,.cls-3{fill:#fff;}.cls-2{stroke:#fff;stroke-miterlimit:10;stroke-width:0.2px;}.cls-4{fill:url(#linear-gradient);}.cls-5{fill:url(#linear-gradient-2);}.cls-6{fill:url(#linear-gradient-3);}.cls-7{fill:url(#linear-gradient-4);}.cls-8{opacity:0.2;}.cls-10,.cls-8,.cls-9{isolation:isolate;}.cls-9{opacity:0.12;}.cls-10{opacity:0.25;}</style><linearGradient id="linear-gradient" x1="26.67" y1="-316.28" x2="1.29" y2="-341.66" gradientTransform="matrix(1, 0, 0, -1, 0, -303.08)" gradientUnits="userSpaceOnUse"><stop offset="0" stop-color="#00a0ff"/><stop offset="0.01" stop-color="#00a1ff"/><stop offset="0.26" stop-color="#00beff"/><stop offset="0.51" stop-color="#00d2ff"/><stop offset="0.76" stop-color="#00dfff"/><stop offset="1" stop-color="#00e3ff"/></linearGradient><linearGradient id="linear-gradient-2" x1="44.86" y1="-333.36" x2="8.27" y2="-333.36" gradientTransform="matrix(1, 0, 0, -1, 0, -303.08)" gradientUnits="userSpaceOnUse"><stop offset="0" stop-color="#ffe000"/><stop offset="0.41" stop-color="#ffbd00"/><stop offset="0.78" stop-color="orange"/><stop offset="1" stop-color="#ff9c00"/></linearGradient><linearGradient id="linear-gradient-3" x1="31.24" y1="-336.83" x2="-3.17" y2="-371.24" gradientTransform="matrix(1, 0, 0, -1, 0, -303.08)" gradientUnits="userSpaceOnUse"><stop offset="0" stop-color="#ff3a44"/><stop offset="1" stop-color="#c31162"/></linearGradient><linearGradient id="linear-gradient-4" x1="4.74" y1="-303.38" x2="20.1" y2="-318.74" gradientTransform="matrix(1, 0, 0, -1, 0, -303.08)" gradientUnits="userSpaceOnUse"><stop offset="0" stop-color="#32a071"/><stop offset="0.07" stop-color="#2da771"/><stop offset="0.48" stop-color="#15cf74"/><stop offset="0.8" stop-color="#06e775"/><stop offset="1" stop-color="#00f076"/></linearGradient></defs><title>GooglePlay</title><g id="Layer_2" data-name="Layer 2"><g id="Layer_1-2" data-name="Layer 1"><rect class="cls-1" width="189.43" height="61.96" rx="8.37" ry="8.37"/><path class="cls-2" d="M65.41,15.52a4.13,4.13,0,0,1-1.13,3A4.41,4.41,0,0,1,61,19.89a4.68,4.68,0,0,1-4.72-4.74A4.68,4.68,0,0,1,61,10.41a4.72,4.72,0,0,1,1.86.38,3.77,3.77,0,0,1,1.42,1l-.8.8A3.06,3.06,0,0,0,61,11.52a3.52,3.52,0,0,0-3.53,3.63,3.49,3.49,0,0,0,1,2.62,3.62,3.62,0,0,0,5,0,2.85,2.85,0,0,0,.76-1.84H61V14.83h4.39A4.25,4.25,0,0,1,65.41,15.52Z"/><path class="cls-2" d="M72.38,11.73H68.24V14.6H72v1.09H68.24v2.88h4.14v1.12h-5.3V10.61h5.3Z"/><path class="cls-2" d="M77.29,19.69H76.12v-8H73.59V10.61h6.24v1.12H77.29Z"/><path class="cls-2" d="M84.34,19.69V10.61H85.5v9.08Z"/><path class="cls-2" d="M90.67,19.69H89.51v-8H87V10.61h6.24v1.12H90.67Z"/><path class="cls-2" d="M105,18.51a4.7,4.7,0,0,1-6.65,0A4.64,4.64,0,0,1,97,15.15a4.66,4.66,0,0,1,1.34-3.37,4.7,4.7,0,0,1,6.64,0,4.63,4.63,0,0,1,1.35,3.36A4.64,4.64,0,0,1,105,18.51Zm-5.79-.76a3.49,3.49,0,0,0,4.93,0,3.56,3.56,0,0,0,1-2.6,3.57,3.57,0,0,0-1-2.61,3.49,3.49,0,0,0-4.93,0,3.57,3.57,0,0,0-1,2.61A3.56,3.56,0,0,0,99.22,17.75Z"/><path class="cls-2" d="M108,19.69V10.61h1.42l4.41,7.06h0l0-1.75V10.61H115v9.08h-1.22l-4.61-7.4h-.05l.05,1.74v5.66Z"/><path class="cls-3" d="M96.73,32.92a6.43,6.43,0,1,0,6.46,6.43A6.34,6.34,0,0,0,96.73,32.92Zm0,10.33a3.91,3.91,0,1,1,3.63-3.9A3.72,3.72,0,0,1,96.73,43.25ZM82.65,32.92a6.43,6.43,0,1,0,6.46,6.43A6.34,6.34,0,0,0,82.65,32.92Zm0,10.33a3.91,3.91,0,1,1,3.63-3.9A3.72,3.72,0,0,1,82.65,43.25ZM65.9,34.89v2.73h6.53a5.73,5.73,0,0,1-1.49,3.44,6.69,6.69,0,0,1-5,2,7.26,7.26,0,0,1,0-14.52,7,7,0,0,1,4.92,1.95l1.92-1.92a9.5,9.5,0,0,0-6.84-2.75,10,10,0,1,0,0,20,9.1,9.1,0,0,0,7-2.8,9,9,0,0,0,2.37-6.38,8.7,8.7,0,0,0-.15-1.71ZM134.41,37a6,6,0,0,0-5.51-4.09,6.11,6.11,0,0,0-6.06,6.43,6.29,6.29,0,0,0,6.38,6.43,6.39,6.39,0,0,0,5.36-2.85l-2.19-1.46a3.68,3.68,0,0,1-3.17,1.78,3.28,3.28,0,0,1-3.12-2l8.6-3.56Zm-8.77,2.15A3.53,3.53,0,0,1,129,35.4a2.49,2.49,0,0,1,2.39,1.37Zm-7,6.23h2.82V26.49h-2.82Zm-4.63-11h-.1a4.43,4.43,0,0,0-3.38-1.44,6.44,6.44,0,0,0,0,12.86,4.37,4.37,0,0,0,3.38-1.46h.1v.93c0,2.46-1.32,3.77-3.44,3.77a3.57,3.57,0,0,1-3.24-2.29l-2.46,1a6.14,6.14,0,0,0,5.7,3.81c3.32,0,6.12-2,6.12-6.7V33.31H114Zm-3.24,8.89a3.69,3.69,0,0,1-3.58-3.88,3.72,3.72,0,0,1,3.58-3.92,3.62,3.62,0,0,1,3.43,3.92A3.59,3.59,0,0,1,110.78,43.25Zm36.87-16.76h-6.76v18.9h2.82V38.23h3.94a5.88,5.88,0,1,0,0-11.74Zm.07,9.11h-4V29.12h4a3.24,3.24,0,1,1,0,6.48Zm17.44-2.72a5.3,5.3,0,0,0-5,2.9l2.51,1a2.67,2.67,0,0,1,2.58-1.38,2.7,2.7,0,0,1,3,2.43v.19a6.24,6.24,0,0,0-2.94-.73c-2.7,0-5.45,1.49-5.45,4.26,0,2.53,2.22,4.16,4.7,4.16a4,4,0,0,0,3.6-1.85h.09v1.46h2.73V38.11C170.9,34.76,168.39,32.88,165.16,32.88Zm-.34,10.36c-.93,0-2.22-.46-2.22-1.6,0-1.46,1.61-2,3-2a5,5,0,0,1,2.57.63A3.41,3.41,0,0,1,164.82,43.24Zm16-9.94-3.23,8.19h-.1l-3.36-8.19h-3l5,11.45-2.87,6.37h2.94L184,33.3ZM155.41,45.39h2.82V26.49h-2.82Z"/><path class="cls-4" d="M9.48,11.43a3,3,0,0,0-.7,2.12V47a3,3,0,0,0,.7,2.13l.11.11L28.33,30.49v-.44L9.59,11.32Z"/><path class="cls-5" d="M34.57,36.74l-6.24-6.25v-.44l6.24-6.25.14.09,7.4,4.2c2.12,1.2,2.12,3.16,0,4.37l-7.4,4.2Z"/><path class="cls-6" d="M34.71,36.66l-6.38-6.39L9.48,49.12c.7.73,1.85.83,3.14.09L34.71,36.66"/><path class="cls-7" d="M34.71,23.88,12.62,11.33c-1.29-.73-2.44-.64-3.14.1L28.33,30.27Z"/><path class="cls-8" d="M34.57,36.52,12.62,49a2.53,2.53,0,0,1-3,0h0l-.11.11h0l.11.11h0a2.53,2.53,0,0,0,3,0L34.71,36.66Z"/><path class="cls-9" d="M9.48,48.9a3,3,0,0,1-.7-2.13V47a3,3,0,0,0,.7,2.13L9.59,49Z"/><path class="cls-9" d="M42.11,32.23l-7.54,4.29.14.14,7.4-4.21a2.65,2.65,0,0,0,1.59-2.18h0A2.8,2.8,0,0,1,42.11,32.23Z"/><path class="cls-10" d="M12.62,11.55,42.11,28.31a2.8,2.8,0,0,1,1.59,2h0a2.65,2.65,0,0,0-1.59-2.18L12.62,11.33c-2.11-1.2-3.84-.2-3.84,2.22v.22C8.78,11.35,10.51,10.35,12.62,11.55Z"/></g></g></svg>