<svg xmlns="http://www.w3.org/2000/svg" width="28" height="28" viewBox="0 0 28 28">
    <g fill="none" fill-rule="evenodd">
        <rect width="28" height="28" fill="#F58F23" rx="6"/>
        <path fill="#9B9B9B" d="M8.264 4.5s-14.789 7.173 1.418 15.8c16.208 8.627 15.574-2.065 11.638-9.112C17.315 4.02 14.882 1.616 8.264 4.5z" style="mix-blend-mode:overlay"/>
        <path fill="#9B9B9B" d="M2.96 13.453s-3.184 16.178 13.514 8.405c16.697-7.773 7.75-13.723-.272-14.825-8.16-1.12-11.556-.624-13.242 6.42z" style="mix-blend-mode:overlay"/>
        <path fill="#9B9B9B" d="M21.848 7.807S13.43-4.429 7.926 11.222c-5.505 15.652 3.96 13.633 9.72 9.158 5.86-4.551 7.677-7.052 4.202-12.573z" style="mix-blend-mode:overlay"/>
        <path fill="#FFF" fill-rule="nonzero" d="M15.492 3.332l1.311 1.312V21.07h1.103l1.316 1.316v2.275l-8.038.007-1.303-1.304V21.07h5.587V3.332h.024zm.106-.257h-.387v17.738H9.624v2.658l1.454 1.454 8.401-.008V22.28l-1.467-1.467h-.952V4.537l-1.462-1.462zm-5.943 20.42l.044.06v-.016l-.044-.044z"/>
        <path fill="#FFF" d="M8.426 6.455c1.47-.722 2.632-1.135 4.515-3.38h2.663v17.738h2.394v2.661H9.613v-2.66h2.581V8.105l-2.58 1.212-1.188-2.863z"/>
        <path fill="#FFF" fill-rule="nonzero" d="M15.347 3.332V21.07h2.399v2.147H9.87V21.07h2.58V7.7l-.365.172-2.337 1.098-.992-2.391.206-.099c.647-.31 1.258-.604 1.925-1.08.72-.514 1.412-1.172 2.173-2.069h2.287zm.257-.256H12.94C11.058 5.32 9.897 5.733 8.426 6.455l1.187 2.863 2.581-1.212v12.707h-2.58v2.661h8.389v-2.66h-2.4V3.074z"/>
    </g>
</svg>
