<svg xmlns="http://www.w3.org/2000/svg" width="30" height="30" viewBox="0 0 30 30">
    <g fill="none" fill-rule="evenodd">
        <path d="M0 0h30v30H0z"/>
        <path fill="#707070" d="M4.154.306c1.877 0 3.404 1.55 3.404 3.46 0 1.908-1.527 3.457-3.404 3.457C2.27 7.223.75 5.673.75 3.766c0-1.91 1.521-3.46 3.404-3.46zm-2.938 28.73h5.876V9.845H1.216v19.19zM10.775 9.845h5.634v2.624h.08c.784-1.51 2.701-3.1 5.558-3.1 5.948 0 7.046 3.975 7.046 9.142v10.525H23.22v-9.333c0-2.226-.037-5.089-3.052-5.089-3.056 0-3.523 2.426-3.523 4.93v9.492h-5.87V9.846z"/>
    </g>
</svg>
