<svg xmlns="http://www.w3.org/2000/svg" width="51" height="57" viewBox="0 0 51 57">
    <defs>
        <linearGradient id="a" x1="-95.738%" x2="192.387%" y1="100%" y2="-123.143%">
            <stop offset="0%" stop-color="#5C9AC0"/>
            <stop offset="100%" stop-color="#8DDC97"/>
        </linearGradient>
    </defs>
    <g fill="none" fill-rule="evenodd">
        <path d="M-10-6h70v70h-70z"/>
        <g fill="url(#a)">
            <path d="M33.644 57h-9a5.507 5.507 0 0 1-5.5-5.5v-3a.5.5 0 0 1 1 0v3c0 2.481 2.02 4.5 4.5 4.5h9c2.482 0 4.5-2.019 4.5-4.5V34.937a.5.5 0 0 1 1 0V51.5c0 3.032-2.467 5.5-5.5 5.5"/>
            <path d="M24.644 47h-11.5c-4.411 0-8-3.589-8-8v-3H3a2.986 2.986 0 0 1-2.666-1.627 2.989 2.989 0 0 1 .226-3.117l4.583-6.416V21c0-7.168 5.832-13 13-13h8c5.338 0 10.215 3.346 12.135 8.325a.502.502 0 0 1-.287.647.505.505 0 0 1-.647-.287C35.574 12.088 31.072 9 26.144 9h-8c-6.617 0-12 5.383-12 12v4a.5.5 0 0 1-.094.291l-4.676 6.547a1.967 1.967 0 0 0-.15 2.077A1.965 1.965 0 0 0 3 35h2.643a.5.5 0 0 1 .5.5V39c0 3.859 3.14 7 7 7h11.5a.5.5 0 1 1 0 1"/>
            <path d="M16.644 25.5h-6a.5.5 0 0 1 0-1h6a.5.5 0 0 1 0 1M15.497 52h-1a.5.5 0 0 1 0-1h1a.5.5 0 0 1 0 1M12.497 52h-9.5a.5.5 0 0 1 0-1h9.5a.5.5 0 0 1 0 1M17.394 4h-1a.5.5 0 0 1 0-1h1a.5.5 0 1 1 0 1M28.894 4h-9.5a.5.5 0 0 1 0-1h9.5a.5.5 0 1 1 0 1M41.497 12a.5.5 0 0 1-.5-.5v-4a.5.5 0 0 1 1 0v4a.5.5 0 0 1-.5.5"/>
            <path d="M43.497 10h-4a.5.5 0 0 1 0-1h4a.5.5 0 0 1 0 1M48.497 5a.5.5 0 0 1-.5-.5v-4a.5.5 0 0 1 1 0v4a.5.5 0 0 1-.5.5"/>
            <path d="M50.497 3h-4a.5.5 0 0 1 0-1h4a.5.5 0 0 1 0 1M31.144 19c-1.103 0-2 .897-2 2v8c0 1.103.897 2 2 2h2.5a.5.5 0 0 1 .5.5v2.864c0 .296.22.422.289.453a.49.49 0 0 0 .53-.068l4.36-3.633a.501.501 0 0 1 .32-.116h6.5c1.105 0 2-.897 2-2v-8c0-1.103-.895-2-2-2h-15zm3.504 16.867c-.216 0-.434-.048-.64-.143a1.49 1.49 0 0 1-.864-1.36V32h-2c-1.654 0-3-1.346-3-3v-8c0-1.654 1.346-3 3-3h15c1.654 0 3 1.346 3 3v8c0 1.654-1.346 3-3 3h-6.318l-4.221 3.517c-.277.231-.615.35-.957.35z"/>
            <path d="M39.644 25a1 1 0 1 1-2 0 1 1 0 0 1 2 0M34.644 25a1 1 0 1 1-2 0 1 1 0 0 1 2 0M44.644 25a1 1 0 1 1-2 0 1 1 0 0 1 2 0"/>
        </g>
    </g>
</svg>
