<svg xmlns="http://www.w3.org/2000/svg" width="55" height="57" viewBox="0 0 55 57">
    <defs>
        <linearGradient id="a" x1="0%" y1="100%" y2="0%">
            <stop offset="0%" stop-color="#5C9AC0"/>
            <stop offset="100%" stop-color="#8DDC97"/>
        </linearGradient>
    </defs>
    <g fill="none" fill-rule="evenodd">
        <g fill="url(#a)">
            <path d="M12 14.19v13.598a18.49 18.49 0 0 0 8.078 15.286l7.422 5.059 7.422-5.06A18.49 18.49 0 0 0 43 27.788V14.19A21.569 21.569 0 0 1 27.5 9.26 21.549 21.549 0 0 1 12 14.19zM27.5 49.24a.499.499 0 0 1-.282-.087L19.515 43.9A19.49 19.49 0 0 1 11 27.788V13.643c0-.141.06-.276.165-.372a.505.505 0 0 1 .387-.125 20.501 20.501 0 0 0 15.62-4.92.499.499 0 0 1 .656 0 20.501 20.501 0 0 0 15.619 4.92.503.503 0 0 1 .553.497v14.145a19.489 19.489 0 0 1-8.515 16.11l-7.704 5.254a.498.498 0 0 1-.281.087zM6 6.277v21.51a24.485 24.485 0 0 0 10.698 20.244L27.5 55.395l10.802-7.364A24.487 24.487 0 0 0 49 27.788V6.277l-1.303.593a15.4 15.4 0 0 1-6.411 1.389c-3.866 0-7.57-1.431-10.43-4.031L27.5 1.176l-3.356 3.052a15.476 15.476 0 0 1-10.43 4.03c-2.225 0-4.381-.466-6.411-1.388L6 6.277zM27.5 56.5a.506.506 0 0 1-.282-.087l-11.083-7.557A25.482 25.482 0 0 1 5 27.787V5.502a.5.5 0 0 1 .707-.456l2.01.915a14.408 14.408 0 0 0 5.997 1.299c3.616 0 7.081-1.34 9.757-3.771L27.163.13a.501.501 0 0 1 .673 0l3.693 3.358a14.474 14.474 0 0 0 9.757 3.77c2.08 0 4.098-.436 5.997-1.298l2.01-.915A.502.502 0 0 1 50 5.5v22.287a25.484 25.484 0 0 1-11.135 21.069l-11.084 7.557a.506.506 0 0 1-.281.087zM.5 28.917a.5.5 0 0 1-.5-.5v-1a.5.5 0 0 1 1 0v1a.5.5 0 0 1-.5.5M.5 25.917a.5.5 0 0 1-.5-.5v-12.5a.5.5 0 0 1 1 0v12.5a.5.5 0 0 1-.5.5M54.5 14.417a.5.5 0 0 1-.5-.5v-1a.5.5 0 0 1 1 0v1a.5.5 0 0 1-.5.5M54.5 28.917a.5.5 0 0 1-.5-.5v-12.5a.5.5 0 0 1 1 0v12.5a.5.5 0 0 1-.5.5"/>
            <path d="M19.192 26.044a1 1 0 0 0-.707 1.706l6.01 6.011a1.025 1.025 0 0 0 1.415 0l10.606-10.607a.993.993 0 0 0 .293-.707.993.993 0 0 0-.293-.707 1.025 1.025 0 0 0-1.414 0l-9.546 9.546a.5.5 0 0 1-.707 0l-4.95-4.95a.996.996 0 0 0-.707-.292m6.01 9.01a1.986 1.986 0 0 1-1.414-.586l-6.01-6.01a2.001 2.001 0 0 1 0-2.829 2.003 2.003 0 0 1 2.828 0l4.596 4.597 9.192-9.193c.757-.756 2.073-.756 2.828 0 .378.377.587.88.587 1.414 0 .534-.209 1.036-.587 1.414L26.616 34.468c-.378.378-.88.586-1.413.586"/>
        </g>
        <path d="M-8-7h70v70H-8z"/>
    </g>
</svg>
