<svg xmlns="http://www.w3.org/2000/svg" width="30" height="26" viewBox="0 0 30 26">
    <g fill="none" fill-rule="evenodd">
        <path d="M0-2h30v30H0z"/>
        <path fill="#707070" d="M11.886 16.741l4.478 2.7-3.637 3.536c-.38.37-.682.682-1.363.682-.884 0-.734-.334-1.039-1.175l-2.598-8.55L11.89 16.7l-.003.04z"/>
        <path fill="#707070" d="M11.827 16.707l10.991 8.12c1.254.692 2.16.334 2.472-1.164L29.764 2.58c.458-1.836-.7-2.67-1.9-2.124l-26.27 10.13c-1.794.719-1.783 1.719-.327 2.165l6.741 2.104 15.608-9.847c.737-.446 1.413-.206.858.286"/>
    </g>
</svg>
