<svg xmlns="http://www.w3.org/2000/svg" xmlns:xlink="http://www.w3.org/1999/xlink" width="420" height="120" viewBox="0 0 420 120">
    <defs>
        <linearGradient id="a" x1="88.305%" x2="13.812%" y1="14.436%" y2="82.169%">
            <stop offset="0%" stop-color="#70CC78"/>
            <stop offset="100%" stop-color="#4597E6"/>
        </linearGradient>
        <path id="b" d="M0 130.727h434.685V.048H0z"/>
    </defs>
    <g fill="none" fill-rule="evenodd">
        <path fill="url(#a)" d="M46.033.133C20.963.133.641 20.49.641 45.606S20.963 91.08 46.033 91.08c25.072 0 45.394-20.358 45.394-45.473S71.105.133 46.033.133z" transform="translate(10 16)"/>
        <path fill="#FFF" d="M55.814 63.546a1.603 1.603 0 0 1 0-3.206 1.603 1.603 0 0 1 0 3.206zm-10.7-24.685h14.808c6.352 0 11.326 4.681 11.326 10.802 0 6.03-4.836 10.708-11.058 10.843a4.632 4.632 0 0 0-4.376-3.14c-2.036 0-3.762.99-4.38 3.157h-6.32V38.86zm-2.601 47.155a1.602 1.602 0 0 1 0-3.205 1.603 1.603 0 0 1 0 3.205zm-12.995-22.47a1.604 1.604 0 0 1 0-3.206 1.603 1.603 0 1 1 0 3.206zm38.936-2.714c3.553-2.515 5.823-6.59 5.823-11.279 0-7.82-6.307-13.941-14.355-13.941h-16.9c-.836 0-1.15.671-1.15 1.509v23.402h-7.974c-.619-2.166-2.347-3.186-4.38-3.186a4.623 4.623 0 0 0-4.628 4.619c0 2.557 2.076 4.768 4.628 4.768 2.006 0 3.713-1.869 4.352-2.952h8.001v16.12c-2.162.462-3.803 2.312-3.803 4.523 0 2.554 1.985 4.633 4.535 4.633 2.552 0 4.871-2.08 4.871-4.633 0-1.83-1.278-3.41-2.36-4.164V63.772h6.346c.64 1.083 2.347 3.083 4.354 3.083 2.006 0 3.714-2 4.352-3.083h5.054c6.28 0 11.389 4.928 11.389 11.157S71.555 86.155 65.34 86.155c-.837 0-1.514.646-1.514 1.482a1.5 1.5 0 0 0 1.514 1.499c7.882 0 14.293-6.437 14.293-14.337 0-6.795-4.784-12.503-11.18-13.967z"/>
        <g transform="translate(-24 -4)">
            <path fill="#4597E6" d="M166.627 37.244h26.745v4.362h-22.49v54.47h-4.255v-54.47h-22.49v-4.362zM232.38 86.472c3.545 3.557 7.803 5.336 12.771 5.336 4.965 0 9.223-1.779 12.771-5.336 3.548-3.556 5.321-7.84 5.321-12.852 0-5.011-1.773-9.296-5.32-12.853-3.549-3.556-7.807-5.333-12.772-5.333-4.968 0-9.226 1.777-12.771 5.333-3.548 3.557-5.322 7.842-5.322 12.853s1.774 9.296 5.322 12.852m30.863-26.029V37.34h4.258v58.737h-4.258v-9.28c-2.035 2.846-4.642 5.102-7.818 6.775-3.18 1.67-6.619 2.505-10.32 2.505-6.17 0-11.429-2.195-15.78-6.588-4.35-4.392-6.527-9.68-6.527-15.868 0-6.185 2.177-11.474 6.527-15.868 4.351-4.39 9.61-6.587 15.78-6.587 3.701 0 7.14.834 10.32 2.505 3.176 1.669 5.783 3.928 7.818 6.773M283.139 69.351h35.17c-.989-4.021-3.117-7.345-6.387-9.975-3.27-2.63-7.019-3.942-11.244-3.942-4.228 0-7.975 1.311-11.244 3.942-3.27 2.63-5.367 5.954-6.295 9.975m39.889 4.27h-40.443c0 5.01 1.772 9.295 5.322 12.85 3.547 3.558 7.818 5.337 12.818 5.337 3.702 0 7.08-1.052 10.134-3.157 3.053-2.101 5.259-4.823 6.617-8.165h4.535c-1.482 4.58-4.18 8.322-8.1 11.229-3.917 2.909-8.314 4.36-13.186 4.36-6.172 0-11.447-2.194-15.828-6.587-4.38-4.392-6.57-9.68-6.57-15.868 0-6.185 2.19-11.474 6.57-15.868 4.38-4.39 9.656-6.589 15.828-6.589 6.166 0 11.428 2.2 15.779 6.59 4.35 4.393 6.524 9.682 6.524 15.867"/>
            <path fill="#4A90E2" d="M367.175 91.808c3.27 0 6.092-1.115 8.469-3.34 2.373-2.229 3.562-4.949 3.562-8.169 0-3.092-1.142-5.752-3.424-7.977-2.283-2.229-5.06-3.404-8.329-3.528h-27.396v23.014h27.118zm-27.118-50.202v22.92h20.733c3.144 0 5.83-1.114 8.05-3.341 2.222-2.227 3.333-4.918 3.333-8.072 0-3.156-1.111-5.861-3.334-8.12-2.22-2.258-4.934-3.387-8.144-3.387h-20.638zm30.91 23.384c3.58.867 6.558 2.724 8.933 5.567 2.375 2.846 3.564 6.094 3.564 9.742 0 4.272-1.514 7.92-4.536 10.953-3.025 3.03-6.727 4.638-11.106 4.823h-32.02V37.338h24.893c4.38 0 8.1 1.532 11.154 4.593 3.053 3.061 4.58 6.79 4.58 11.182 0 4.763-1.82 8.721-5.462 11.877z"/>
            <mask id="c" fill="#fff">
                <use xlink:href="#b"/>
            </mask>
            <path fill="#4A90E2" d="M393.333 96.075h4.257V51.164h-4.257zM415.236 37.338v13.826h18.14v4.27h-18.14V73.62c0 5.01 1.774 9.295 5.322 12.851 3.547 3.558 7.82 5.337 12.818 5.337v4.267c-6.171 0-11.447-2.194-15.827-6.586-4.382-4.393-6.569-9.682-6.569-15.87V37.34h4.256zM395.71 40.02a2.485 2.485 0 0 0 0 4.97 2.484 2.484 0 0 0 0-4.97m0 8.66c-3.396 0-6.158-2.77-6.158-6.174 0-3.405 2.762-6.175 6.158-6.175 3.396 0 6.16 2.77 6.16 6.175 0 3.404-2.764 6.174-6.16 6.174" mask="url(#c)"/>
            <path fill="#4597E6" d="M208.104 96.075h4.256V51.164h-4.256zM210.481 40.02a2.485 2.485 0 0 0 0 4.97 2.484 2.484 0 0 0 0-4.97m0 8.66c-3.396 0-6.159-2.77-6.159-6.174 0-3.405 2.763-6.175 6.16-6.175 3.396 0 6.158 2.77 6.158 6.175 0 3.404-2.762 6.174-6.159 6.174" mask="url(#c)"/>
        </g>
    </g>
</svg>
